<svg xmlns="http://www.w3.org/2000/svg" width="606.667" height="606.667" viewBox="0 0 455 455" preserveAspectRatio="xMidYMid meet" xmlns:v="https://vecta.io/nano"><path d="M208.5.6c-10.8 1.1-26.2 3.8-36.7 6.5C91.2 27.2 27.2 91.2 7.1 171.8 1.8 193.1.5 203.4.5 227.5s1.3 34.4 6.6 55.7c20.1 80.6 84.1 144.6 164.7 164.7 21.3 5.3 31.6 6.6 55.7 6.6s34.4-1.3 55.7-6.6c16.2-4 28.9-8.7 45.3-16.8 59.3-29.2 103.4-83.7 119.4-147.9 5.3-21.3 6.6-31.6 6.6-55.7s-1.3-34.4-6.6-55.7c-16-64.2-60.1-118.7-119.4-147.9C296.2 8 267.8 1.1 232 .5c-10.7-.2-21.3-.1-23.5.1zm-25 89.7l63.5 91.6c.3 0 12.4-14 27-31.1l54.3-63.2L340.1 74h12 12.1l-3.1 3.9a299.95 299.95 0 0 1-7.4 8.7c-2.4 2.7-18.3 21.1-35.2 40.9l-45.8 53.2c-9.7 11.3-14.6 17.7-14.1 18.5.4.7 9.7 14.3 20.7 30.3l32 46.5 20.7 30 42 61.5c0 .3-18.9.5-41.9.5h-42l-8.7-12.8-45.2-65.7c-25.3-36.6-25.5-36.9-26.6-35.3-.6.8-22.9 26.7-49.5 57.6L111.7 368H99.8c-9.1 0-11.7-.3-11.2-1.2.4-.7 19-22.4 41.2-48.3l48.1-55.9 14.9-17.4 7.2-8.4-3.3-4.6-17.7-25.7-37-53.7-52.6-77.2c-.6-1.5 2.9-1.6 41.2-1.6h41.9l11 16.3zM125 93.5c0 .7 37.8 56 72.8 106.5l28.2 41 48.4 70.2 26 37.8h18.9c14.8 0 18.7-.3 18.1-1.3L327 332.5 295 286l-41-59.5-30.7-44.5-33-48-24.4-35.7-3.4-5.3h-18.7c-10.4 0-18.8.2-18.8.5z"/></svg>